<?xml version="1.0" encoding="UTF-8"?>
<svg id="svg" version="1.1" width="549.6190401669988" height="661.7475135084564" viewBox="115 68.4303261381405 549.6190401669988 661.7475135084564" xmlns="http://www.w3.org/2000/svg" xmlns:xlink="http://www.w3.org/1999/xlink"><path d="M337.000 68.623 C 317.530 71.110,302.739 75.656,298.500 80.457 C 296.470 82.756,292.164 85.311,285.184 88.359 C 274.469 93.037,269.931 95.902,264.000 101.730 C 262.075 103.621,256.695 107.943,252.045 111.335 C 242.109 118.580,236.501 125.199,237.970 127.944 C 238.743 129.389,237.755 131.191,232.937 137.121 C 222.509 149.955,213.998 169.969,214.002 181.644 C 214.004 187.773,216.686 193.385,219.826 193.830 C 221.547 194.073,221.979 194.594,221.483 195.830 C 221.115 196.748,220.137 201.550,219.310 206.500 C 216.721 221.997,218.448 232.843,227.051 255.121 C 233.497 271.815,239.213 292.169,239.372 299.000 L 239.500 304.500 236.233 304.244 C 230.900 303.826,226.307 306.338,224.465 310.681 C 223.076 313.956,222.907 317.989,223.281 339.000 C 223.704 362.827,223.800 363.775,226.758 373.500 C 232.819 393.422,238.630 404.723,244.329 407.670 C 245.966 408.517,249.307 409.500,251.753 409.855 L 256.200 410.500 258.596 418.104 C 261.562 427.518,266.943 437.419,274.901 448.110 C 279.172 453.847,281.019 457.231,281.063 459.401 C 281.098 461.105,281.477 467.450,281.906 473.500 C 282.335 479.550,282.316 485.816,281.863 487.425 C 281.410 489.033,279.302 492.019,277.178 494.060 C 269.672 501.273,261.064 512.805,257.038 521.044 C 254.797 525.631,252.183 530.249,251.231 531.307 C 250.279 532.365,245.225 535.261,240.000 537.742 C 234.775 540.224,226.000 544.386,220.500 546.991 C 215.000 549.595,204.875 554.435,198.000 557.744 C 178.248 567.253,161.868 575.000,161.515 575.000 C 161.336 575.000,152.710 579.099,142.345 584.109 C 131.980 589.119,121.588 594.053,119.250 595.074 C 116.913 596.094,115.000 597.295,115.000 597.742 C 115.000 600.414,131.475 619.304,146.648 634.028 C 158.772 645.793,167.753 653.450,180.365 662.775 C 184.289 665.676,187.650 668.488,187.833 669.025 C 188.017 669.561,188.737 670.000,189.433 670.000 C 190.130 670.000,192.607 671.382,194.939 673.070 C 210.651 684.453,245.052 701.492,270.658 710.575 C 287.793 716.654,323.475 725.328,340.000 727.432 C 366.850 730.851,402.614 731.104,426.000 728.040 C 450.022 724.893,457.711 723.265,483.500 715.861 C 523.660 704.331,565.632 682.471,600.000 655.186 C 623.840 636.259,667.985 587.504,664.415 584.043 C 663.573 583.226,648.744 577.512,626.500 569.431 C 621.550 567.633,614.125 564.730,610.000 562.980 C 605.875 561.231,600.250 559.004,597.500 558.032 C 594.750 557.060,587.325 553.994,581.000 551.218 C 574.675 548.442,562.975 543.398,555.000 540.009 C 547.025 536.620,537.125 532.270,533.000 530.342 C 522.146 525.269,509.160 519.115,504.192 516.690 C 501.284 515.271,498.297 512.447,495.004 508.005 C 490.485 501.910,483.855 495.194,474.552 487.288 L 470.772 484.076 471.183 463.288 L 471.593 442.500 475.797 430.000 C 478.110 423.125,480.482 415.537,481.069 413.139 C 482.087 408.981,482.277 408.805,485.139 409.378 C 492.487 410.847,497.977 403.827,506.594 381.937 C 514.225 362.554,516.260 351.876,516.393 330.500 C 516.489 315.185,516.302 313.163,514.500 310.105 C 511.801 305.522,508.131 302.961,503.345 302.319 L 499.362 301.785 501.184 292.320 C 503.216 281.760,507.259 265.817,511.917 250.000 C 516.568 234.206,517.547 224.536,515.622 213.389 C 514.756 208.378,513.144 202.168,512.038 199.589 C 510.932 197.009,510.435 195.151,510.933 195.459 C 512.158 196.216,513.384 184.065,512.506 179.863 C 511.392 174.528,507.525 168.681,501.422 163.103 L 495.772 157.939 497.386 151.514 C 500.844 137.747,499.037 124.056,492.481 114.365 C 486.851 106.041,469.876 94.076,458.689 90.546 C 456.385 89.819,450.675 87.814,446.000 86.092 C 417.418 75.560,385.771 69.433,355.633 68.596 C 347.310 68.365,338.925 68.377,337.000 68.623 M410.000 95.652 C 420.054 99.321,428.003 104.108,434.192 110.221 C 442.441 118.368,447.000 124.128,447.000 126.403 C 447.000 127.953,443.707 125.360,442.866 123.147 C 442.240 121.502,441.625 120.988,441.168 121.728 C 440.680 122.518,437.582 121.096,431.475 117.279 C 423.403 112.233,414.000 108.148,414.000 109.687 C 414.000 110.012,415.862 114.152,418.137 118.889 C 428.061 139.542,430.592 147.382,425.073 140.365 C 423.933 138.916,423.000 138.054,423.000 138.449 C 423.000 138.845,421.300 137.822,419.222 136.176 C 411.118 129.757,395.000 122.724,395.000 125.607 C 395.000 125.941,396.553 129.204,398.450 132.857 C 403.831 143.217,409.165 155.168,408.641 155.692 C 408.380 155.954,404.508 153.377,400.037 149.967 C 391.903 143.763,381.798 138.769,374.750 137.469 C 372.279 137.013,371.000 137.151,371.000 137.872 C 371.000 138.474,372.666 142.334,374.702 146.448 C 376.738 150.563,378.123 154.210,377.780 154.553 C 377.438 154.896,375.170 154.012,372.741 152.588 C 370.312 151.165,367.556 150.000,366.617 150.000 C 365.678 150.000,363.784 148.875,362.409 147.500 C 361.034 146.125,359.495 145.000,358.990 145.000 C 358.484 145.000,357.601 144.123,357.027 143.051 C 356.454 141.979,352.848 138.648,349.015 135.649 C 345.010 132.516,342.582 129.991,343.305 129.713 C 343.998 129.447,349.275 129.563,355.032 129.970 C 362.315 130.484,365.736 130.373,366.277 129.605 C 366.753 128.927,363.854 125.458,358.777 120.631 L 350.500 112.762 355.539 113.446 C 359.989 114.050,381.839 112.418,382.911 111.402 C 383.807 110.552,379.267 106.702,373.541 103.455 C 366.739 99.599,367.938 99.086,378.188 101.466 C 386.575 103.413,394.399 106.155,400.739 109.368 C 406.597 112.336,408.000 112.587,408.000 110.664 C 408.000 109.359,400.308 99.179,395.265 93.808 L 392.737 91.116 399.118 92.563 C 402.628 93.359,407.525 94.749,410.000 95.652 M341.500 142.445 C 352.850 144.700,358.299 146.154,359.816 147.332 C 361.849 148.912,363.982 153.579,364.889 158.437 C 366.134 165.100,365.035 165.808,359.429 161.951 C 347.291 153.600,325.686 145.001,311.402 142.835 C 305.079 141.876,303.999 141.479,306.000 140.847 C 309.824 139.637,332.511 140.659,341.500 142.445 M444.642 193.510 C 445.229 195.040,442.015 200.012,436.886 205.506 C 432.141 210.590,433.677 211.234,450.886 211.372 C 467.871 211.508,467.300 211.180,464.406 219.124 C 462.337 224.808,462.367 235.365,464.471 241.582 C 465.387 244.287,469.241 251.697,473.036 258.049 C 477.154 264.943,480.452 271.796,481.217 275.049 C 483.257 283.718,482.889 352.970,480.723 368.242 C 479.806 374.700,479.317 380.663,479.635 381.492 C 480.474 383.677,484.109 383.286,487.000 380.701 C 492.249 376.008,494.901 371.803,497.461 364.117 C 500.408 355.268,500.982 347.785,499.068 343.164 C 497.870 340.272,498.041 339.759,502.150 333.893 L 506.500 327.682 506.804 335.091 C 507.310 347.424,503.157 364.721,495.541 382.000 C 493.723 386.125,491.742 390.738,491.139 392.250 C 489.897 395.366,486.738 395.873,483.559 393.468 C 482.491 392.661,481.131 392.000,480.535 392.000 C 479.940 392.000,478.162 395.488,476.586 399.750 C 472.721 410.199,466.115 423.455,460.933 431.161 C 450.596 446.534,424.871 468.999,408.073 477.324 L 399.646 481.500 382.573 481.500 C 365.840 481.500,365.392 481.444,360.077 478.704 C 357.094 477.167,354.071 475.142,353.359 474.204 C 351.120 471.258,351.717 465.489,354.619 462.041 C 357.812 458.246,360.980 456.556,371.681 452.939 C 376.224 451.403,381.472 448.979,383.342 447.552 C 386.456 445.177,393.769 433.436,392.762 432.429 C 392.525 432.192,388.569 432.505,383.971 433.123 C 371.751 434.768,357.858 433.841,350.574 430.896 C 347.315 429.578,344.466 427.940,344.243 427.256 C 343.551 425.134,348.981 423.904,358.435 424.039 C 363.421 424.110,369.075 424.107,371.000 424.032 C 390.351 423.275,408.926 423.624,412.155 424.804 C 417.694 426.830,422.287 426.067,423.015 423.000 C 423.985 418.916,422.945 416.026,419.019 411.899 C 414.722 407.383,413.730 407.187,410.636 410.250 C 405.417 415.417,405.759 415.373,397.322 411.962 C 382.783 406.085,380.859 405.723,373.830 407.544 C 368.683 408.878,366.881 408.947,363.309 407.947 C 359.079 406.762,352.320 407.036,348.634 408.541 C 344.468 410.242,349.074 405.100,354.869 401.580 C 358.103 399.615,361.310 397.331,361.997 396.504 C 364.118 393.948,364.775 394.816,364.249 399.482 C 363.671 404.609,365.030 405.803,369.717 404.290 C 373.880 402.945,376.608 396.889,375.167 392.192 C 374.561 390.217,374.315 388.354,374.620 388.051 C 374.925 387.748,379.050 387.500,383.787 387.500 L 392.400 387.500 395.292 383.212 C 397.285 380.255,398.314 377.305,398.604 373.712 L 399.025 368.500 397.262 373.500 C 395.774 377.723,395.063 378.550,392.685 378.823 C 391.137 379.000,388.726 378.395,387.326 377.478 C 385.476 376.266,383.652 375.982,380.641 376.437 C 368.932 378.208,368.307 378.197,364.292 376.149 C 359.601 373.756,354.297 368.031,353.378 364.370 C 352.935 362.605,353.969 358.219,356.614 350.638 L 360.500 339.500 360.476 321.000 C 360.450 300.974,359.979 298.673,354.594 292.287 C 351.093 288.135,339.946 280.333,333.291 277.376 C 328.218 275.122,307.433 271.000,301.139 271.000 C 299.337 271.000,297.966 270.468,297.921 269.750 C 297.858 268.750,297.741 268.750,297.338 269.750 C 296.887 270.867,290.000 271.632,290.000 270.565 C 290.000 270.326,290.447 268.954,290.994 267.517 C 292.312 264.050,297.478 262.000,304.896 262.000 C 308.997 262.000,311.351 261.507,312.438 260.419 C 314.153 258.704,314.177 258.771,309.300 251.617 C 305.122 245.488,304.626 243.471,305.228 235.058 C 305.625 229.503,306.302 227.422,308.969 223.546 C 314.540 215.448,324.007 211.000,335.672 211.000 C 339.606 211.000,340.072 211.208,339.011 212.487 C 337.127 214.756,338.485 216.763,342.695 217.932 C 351.987 220.512,360.082 218.143,369.710 210.024 C 379.052 202.146,378.940 202.207,380.137 204.311 C 380.943 205.727,381.858 205.973,384.334 205.439 C 388.188 204.607,394.080 201.699,399.680 197.863 C 403.325 195.367,404.779 195.000,411.037 195.000 C 417.486 195.000,418.139 195.178,417.478 196.750 C 415.675 201.040,415.792 202.799,417.925 203.476 C 421.457 204.597,425.281 203.171,434.068 197.456 C 438.682 194.455,442.818 192.000,443.260 192.000 C 443.701 192.000,444.324 192.680,444.642 193.510 M442.917 268.408 C 442.688 268.632,434.261 270.212,424.191 271.918 C 404.511 275.252,399.831 276.943,395.767 282.184 C 394.353 284.008,391.383 287.363,389.167 289.639 C 385.346 293.565,384.607 294.951,384.882 297.679 C 385.092 299.776,387.995 301.922,392.129 303.035 C 395.366 303.906,396.021 304.457,395.431 305.811 C 393.376 310.528,393.857 313.518,397.582 319.167 C 402.950 327.310,409.510 330.526,420.548 330.429 C 429.206 330.353,430.600 329.744,439.253 322.250 C 441.317 320.463,443.624 319.000,444.380 319.000 C 445.137 319.000,446.354 318.278,447.086 317.396 C 447.819 316.514,449.421 315.410,450.648 314.944 C 451.875 314.477,453.360 313.196,453.948 312.097 C 454.861 310.391,454.491 309.690,451.409 307.300 C 442.676 300.525,442.907 300.942,448.846 302.660 C 454.851 304.397,456.797 303.583,454.496 300.298 C 451.834 296.497,443.919 292.719,436.217 291.570 C 432.211 290.973,428.836 290.039,428.717 289.494 C 428.597 288.949,431.962 287.867,436.193 287.089 C 443.458 285.753,444.293 285.795,451.193 287.841 C 455.212 289.032,459.963 290.005,461.750 290.003 C 466.645 289.998,466.093 286.484,460.064 279.268 C 453.104 270.938,445.349 266.027,442.917 268.408 M329.141 308.705 C 331.813 310.744,334.000 312.794,334.000 313.262 C 334.000 313.730,331.863 315.068,329.250 316.235 C 321.865 319.535,303.711 319.271,298.750 315.792 C 295.596 313.580,295.231 311.530,297.740 310.125 C 299.110 309.359,300.016 309.787,301.990 312.135 C 305.138 315.878,311.696 317.585,316.648 315.951 C 320.156 314.793,323.000 310.808,323.000 307.050 C 323.000 304.278,323.520 304.418,329.141 308.705 M439.099 309.106 C 440.694 310.814,442.000 312.830,442.000 313.585 C 442.000 314.341,440.100 315.929,437.778 317.113 C 434.072 319.004,432.451 319.201,424.528 318.724 C 418.768 318.377,413.509 317.397,410.000 316.018 C 403.217 313.353,402.313 312.533,403.965 310.542 C 405.772 308.365,409.725 308.617,410.994 310.990 C 415.070 318.606,430.336 316.765,432.434 308.405 C 433.255 305.135,435.622 305.384,439.099 309.106 M504.000 314.919 C 504.000 315.857,502.650 317.622,501.000 318.842 C 498.119 320.972,498.000 320.983,498.000 319.112 C 498.000 318.040,497.728 316.455,497.395 315.588 C 496.989 314.529,497.562 313.726,499.145 313.138 C 502.118 312.033,504.000 312.723,504.000 314.919 M335.487 325.750 C 335.087 326.713,334.374 334.179,333.902 342.341 C 333.430 350.504,332.650 358.604,332.169 360.341 C 330.409 366.692,312.679 392.000,309.989 392.000 C 308.277 392.000,302.926 388.366,296.515 382.852 C 292.588 379.473,285.650 369.478,282.388 362.500 C 280.008 357.408,279.582 355.213,279.578 348.000 C 279.572 337.529,281.155 332.488,285.089 330.454 C 287.752 329.077,288.816 329.132,297.129 331.084 C 307.358 333.485,313.515 333.187,320.877 329.934 C 323.285 328.870,325.872 328.000,326.627 328.000 C 327.382 328.000,328.000 327.588,328.000 327.083 C 328.000 326.149,332.398 324.222,334.857 324.079 C 335.768 324.026,335.975 324.575,335.487 325.750 M343.235 369.165 C 342.021 370.379,339.000 369.621,339.000 368.103 C 339.000 367.575,339.766 366.377,340.702 365.441 C 342.305 363.838,342.460 363.865,343.369 365.902 C 344.021 367.362,343.977 368.423,343.235 369.165 M460.127 466.218 C 459.956 485.964,462.195 513.023,464.436 518.272 C 465.321 520.347,467.626 523.794,469.557 525.931 L 473.068 529.818 472.051 542.350 C 470.932 556.126,467.637 573.070,465.304 577.046 C 463.439 580.223,460.239 582.348,447.000 589.199 C 427.241 599.425,410.105 604.789,391.681 606.515 L 383.863 607.248 384.571 603.374 C 384.961 601.243,387.467 591.932,390.140 582.682 C 392.813 573.433,395.000 565.220,395.000 564.432 C 395.000 563.335,393.468 563.000,388.450 563.000 C 384.755 563.000,380.724 562.385,379.200 561.589 C 371.337 557.481,367.367 547.566,369.853 538.248 C 372.603 527.941,379.433 520.716,408.228 497.653 C 416.328 491.166,425.817 483.265,429.314 480.096 C 437.848 472.361,455.878 454.058,457.759 451.219 C 458.591 449.964,459.495 449.162,459.770 449.436 C 460.044 449.711,460.205 457.262,460.127 466.218 " stroke="none" fill="#000000" fill-rule="evenodd"/></svg>